<svg width="100" height="112" xmlns="http://www.w3.org/2000/svg">

 <title/>
 <g>
  <title>background</title>
  <rect fill="none" id="canvas_background" height="402" width="582" y="-1" x="-1"/>
 </g>
 <g>
  <title>Layer 1</title>
  <path fill="#fff48c" id="svg_15" d="m29.95,51.73a23.05,23.05 0 0 1 1.8,-2.73l-1,0a20.31,20.31 0 0 0 -0.8,2.73z" class="cls-11"/>
  <g stroke="null" id="svg_17">
   <path stroke="null" fill="#ff6242" id="svg_3" d="m50.243053,9.412254a48.817979,48.898739 0 0 0 -35.807808,15.542387l71.615617,0a48.817979,48.898739 0 0 0 -35.807808,-15.542387z" class="cls-3"/>
   <path stroke="null" fill="#ff8a14" id="svg_4" d="m4.241955,41.692596l24.22995,0a27.428781,27.474157 0 0 1 43.518423,0l24.253822,0a49.032826,49.113942 0 0 0 -10.193289,-16.737955l-71.615617,0a49.032826,49.113942 0 0 0 -10.193289,16.737955z" class="cls-4"/>
   <path stroke="null" fill="#ffe500" id="svg_5" d="m28.471905,41.692596l-24.22995,0a48.69862,48.779183 0 0 0 -2.93624,16.737955l21.484685,0a27.309422,27.3546 0 0 1 5.681506,-16.737955z" class="cls-5"/>
   <path stroke="null" fill="#ffe500" id="svg_6" d="m77.695706,58.43055l21.484685,0a48.69862,48.779183 0 0 0 -2.93624,-16.737955l-24.22995,0a27.309422,27.3546 0 0 1 5.681506,16.737955z" class="cls-5"/>
   <path stroke="null" fill="#6dd627" id="svg_7" d="m72.0142,75.168505l24.22995,0a48.69862,48.779183 0 0 0 2.93624,-16.737955l-21.484685,0a27.309422,27.3546 0 0 1 -5.681506,16.737955z" class="cls-6"/>
   <path stroke="null" fill="#6dd627" id="svg_8" d="m22.790399,58.43055l-21.484685,0a48.69862,48.779183 0 0 0 2.93624,16.737955l24.22995,0a27.309422,27.3546 0 0 1 -5.681506,-16.737955z" class="cls-6"/>
   <path stroke="null" fill="#00b8f0" id="svg_9" d="m50.243053,85.928619a27.428781,27.474157 0 0 1 -21.771148,-10.760114l-24.22995,0a49.032826,49.113942 0 0 0 10.193289,16.737955l71.615617,0a49.032826,49.113942 0 0 0 10.288777,-16.737955l-24.325438,0a27.428781,27.474157 0 0 1 -21.771148,10.760114z" class="cls-7"/>
   <path stroke="null" fill="#9f5ae5" id="svg_10" d="m50.243053,107.448847a48.817979,48.898739 0 0 0 35.807808,-15.542387l-71.615617,0a48.817979,48.898739 0 0 0 35.807808,15.542387z" class="cls-8"/>
   <path stroke="null" fill="#ff866e" id="svg_11" d="m50.243053,9.412254a48.794107,48.874828 0 0 0 -35.807808,15.542387l13.320505,0a55.048538,55.139605 0 0 1 44.855248,0l13.439864,0a48.794107,48.874828 0 0 0 -35.807808,-15.542387z" class="cls-9"/>
   <path stroke="null" fill="#ffaa54" id="svg_12" d="m27.827365,24.954641l-13.39212,0a48.96121,49.042208 0 0 0 -10.264905,16.737955l2.387187,0a55.096281,55.187428 0 0 1 21.269838,-16.737955z" class="cls-10"/>
   <path stroke="null" fill="#ffaa54" id="svg_13" d="m93.80922,41.692596l2.387187,0a48.913466,48.994385 0 0 0 -10.145546,-16.737955l-13.39212,0a55.096281,55.187428 0 0 1 21.150479,16.737955z" class="cls-10"/>
   <path stroke="null" fill="#fff48c" id="svg_14" d="m98.130029,48.220398a48.650876,48.73136 0 0 0 -1.885878,-6.527802l-2.387187,0a55.048538,55.139605 0 0 1 4.273065,6.527802z" class="cls-11"/>
   <path stroke="#45413c" stroke-linejoin="round" stroke-linecap="round" fill="none" id="svg_16" d="m50.243053,107.448847a48.937338,49.018296 0 1 1 48.937338,-49.018296a48.985082,49.066119 0 0 1 -48.937338,49.018296zm0,-76.516365a27.452653,27.498069 0 1 0 27.452653,27.498069a27.476525,27.52198 0 0 0 -27.452653,-27.498069z" class="cls-12"/>
  </g>
 </g>
</svg>