<svg width="512" height="512" xmlns="http://www.w3.org/2000/svg">

 <g>
  <title>background</title>
  <rect fill="none" id="canvas_background" height="402" width="582" y="-1" x="-1"/>
 </g>
 <g>
  <title>Layer 1</title>
  <path stroke="#e63888" id="svg_3" fill="#e63888" d="m351.433056,58.597723c-24.994321,-13.265371 -51.869323,-20.357406 -80.010405,-22.252908c-1.407438,-0.086373 -2.811803,-0.544937 -4.190048,-0.860592c-7.478168,0 -14.956336,0 -22.436041,0c-6.803642,0.89043 -13.691793,1.578276 -20.466242,2.697988c-72.675132,12.374941 -126.174687,52.11609 -160.670752,118.38641c-13.550434,26.102017 -20.804273,54.212606 -22.715684,83.700456c-0.112165,1.463635 -0.562361,2.870735 -0.843541,4.277835c0,7.636972 0,15.275514 0,22.943894c0.843541,6.796795 1.490409,13.63128 2.585937,20.379392c12.144533,75.143216 51.589679,130.216414 117.48729,165.389199c25.106486,13.351745 52.124383,20.501885 80.434481,22.424084c1.405902,0.087944 2.78261,0.574775 4.188512,0.832325c7.478168,0 14.956336,0 22.436041,0c6.662284,-0.862163 13.381419,-1.491903 19.988389,-2.641453c73.208299,-12.318406 126.990571,-52.315533 161.512757,-119.220305c13.327641,-25.839756 20.440121,-53.722633 22.323876,-82.924667c0.112165,-1.435368 0.590018,-2.836186 0.842005,-4.240145c0,-7.66838 0,-15.306922 0,-22.943894c-0.842005,-6.804647 -1.461216,-13.6674 -2.55828,-20.415511c-12.199847,-75.312822 -51.755622,-130.444125 -117.908292,-165.532108zm-181.306009,375.480517c-42.536594,-22.080161 -74.05184,-55.159571 -92.748029,-100.211894c-21.787636,-52.544815 -20.83193,-105.314201 0.619211,-157.68784c0.393345,0 0.78669,0.029838 1.209229,0.029838c30.644048,85.740437 61.288097,171.471451 91.904488,257.210318c-0.310374,0.201014 -0.646868,0.458564 -0.984899,0.659578zm30.813064,12.232032c19.398371,-57.541904 38.65692,-114.653513 57.887812,-171.765121c0.393345,-0.056535 0.78669,-0.056535 1.180036,-0.056535c20.017582,56.020164 40.035165,111.983792 60.333927,168.778174c-39.472804,13.840146 -78.888757,14.845218 -119.401775,3.043482zm151.815876,-70.031486c-23.560762,-71.611333 -46.809613,-142.124939 -70.199823,-213.24944c5.875594,-0.516669 11.245677,-1.005071 16.614225,-1.521741c1.99592,-0.142909 4.019496,-0.315655 5.987759,-0.717684c4.666365,-0.860592 7.198524,-4.134926 6.8313,-8.55567c-0.421002,-4.595061 -3.626151,-7.437528 -8.65974,-7.179978c-11.216484,0.604613 -22.436041,1.895502 -33.624867,1.837396c-21.11311,-0.084803 -42.253877,-0.918698 -63.366987,-1.463635c-1.99592,-0.058106 -4.021033,-0.430296 -6.016952,-0.373761c-4.414378,0.114641 -7.226181,2.958679 -7.619526,7.40926c-0.393345,4.48042 1.856098,7.638542 6.410297,8.269853c5.397741,0.775789 10.852332,1.4071 16.27773,1.636382c3.289656,0.142909 5.088903,1.089874 6.270475,4.536955c9.025428,25.67015 18.301307,51.253927 27.354392,76.894239c0.702183,1.923769 1.123185,4.450582 0.50551,6.287978c-13.465927,41.627228 -27.073212,83.204202 -40.680496,124.811015c-0.169016,0.573205 -0.393345,1.063177 -1.602574,1.865664c-23.39021,-70.978452 -46.752763,-142.010298 -70.368839,-213.794377c6.072266,-0.516669 11.300992,-0.976804 16.586567,-1.465206c1.714739,-0.114641 3.429478,-0.229282 5.144217,-0.544937c5.678921,-0.976804 8.068186,-3.875806 7.535019,-9.188551c-0.50551,-4.623328 -3.712195,-7.007232 -9.38958,-6.691576c-11.470007,0.632881 -22.969208,1.579847 -34.466872,2.03841c-9.137593,0.315655 -18.302843,0.058106 -28.760294,0.058106c28.253247,-42.238123 65.364443,-70.606261 113.072912,-82.924667c67.219004,-17.37203 126.989034,-1.206086 180.745185,45.022485c-3.120641,0.373761 -4.976738,0.544937 -6.860493,0.860592c-18.161485,3.07332 -30.531883,20.501885 -28.085768,39.108268c1.209229,9.07391 4.498886,17.285657 8.88407,25.095375c4.638707,8.29812 9.586252,16.366959 14.083601,24.751452c12.820595,24.062036 15.154545,49.273622 7.564212,75.45259c-9.615446,33.019734 -19.399907,66.012771 -29.125982,99.034076c-0.112165,0.488402 -0.365688,0.948536 -1.038677,2.701129zm95.530639,-92.342499c-9.192907,62.45105 -41.299708,109.656423 -93.225882,143.021651c-0.421002,-0.229282 -0.814347,-0.402029 -1.209229,-0.63131c0.984899,-3.016784 1.968262,-6.057125 2.980819,-9.045642c18.441129,-54.470155 36.743972,-108.968578 55.410966,-163.344507c5.342427,-15.649275 10.767824,-31.268711 13.27079,-47.722043c2.192592,-14.471457 2.446115,-28.914646 1.433559,-43.530582c20.157404,38.018394 27.635572,78.562029 21.338976,121.252434z"/>
 </g>
</svg>